/* XPM */
static char * run32x32_xpm[] = {
"32 32 4 1",
" 	c #FFFFFF",
".	c #8B8B8B",
"+	c #000000",
"@	c #4743FF",
"                                ",
" ..............................+",
" ..............................+",
" ..............................+",
" ..............................+",
" .....@@@@@@@@@@@@@@@@@@@@.....+",
" .....@..................@.....+",
" .....@..................@.....+",
" .....@..++..............@.....+",
" .....@..++++............@.....+",
" .....@..++++++..........@.....+",
" .....@..++++++++........@.....+",
" .....@..++++++++++......@.....+",
" .....@..++++++++++++....@.....+",
" .....@..++++++++++++++..@.....+",
" .....@..+++++++++++++++.@.....+",
" .....@..++++++++++++++..@.....+",
" .....@..++++++++++++....@.....+",
" .....@..++++++++++......@.....+",
" .....@..++++++++........@.....+",
" .....@..++++++..........@.....+",
" .....@..++++............@.....+",
" .....@..++..............@.....+",
" .....@..................@.....+",
" .....@@@@@@@@@@@@@@@@@@@@.....+",
" ..............................+",
" ..............................+",
" ..............................+",
" ..............................+",
" ..............................+",
" ..............................+",
" +++++++++++++++++++++++++++++++"};
