/* XPM */
static char * open32x32_xpm[] = {
"32 32 6 1",
" 	c #FFFFFF",
".	c #8B8B8B",
"+	c #000000",
"@	c #FFC200",
"#	c #E5C993",
"$	c #8E7645",
"                                ",
" ..............................+",
" ..............................+",
" ..............................+",
" ..............................+",
" ..............................+",
" ..............................+",
" ..............................+",
" ..............................+",
" .....@@@@@@@@@@@@@@@..........+",
" .....@##############@.........+",
" ....@@###############@........+",
" ....@#################@.......+",
" ....@#################@.......+",
" ....@#################@.......+",
" ....@#######@@@@@@@@@@@@@@@...+",
" ....@######@$$$$$$$$$$$$$$$@..+",
" ....@#####@$$$$$$$$$$$$$$$$@..+",
" ....@#####@$$$$$$$$$$$$$$$@...+",
" ....@####@$$$$$$$$$$$$$$$$@...+",
" ....@####@$$$$$$$$$$$$$$$@....+",
" ....@###@$$$$$$$$$$$$$$$$@....+",
" ....@###@$$$$$$$$$$$$$$$@.....+",
" ....@##@$$$$$$$$$$$$$$$$@.....+",
" ....@##@$$$$$$$$$$$$$$$@......+",
" ....@#@$$$$$$$$$$$$$$$$@......+",
" ....@#@$$$$$$$$$$$$$$$@.......+",
" ....@@@@@@@@@@@@@@@@@@@.......+",
" ..............................+",
" ..............................+",
" ..............................+",
" +++++++++++++++++++++++++++++++"};
