/* XPM */
static char * reload32x32_xpm[] = {
"32 32 7 1",
" 	c #FFFFFF",
".	c #8B8B8B",
"+	c #000000",
"@	c #00B01A",
"#	c #FFC200",
"$	c #E5C993",
"%	c #8E7645",
"                                ",
" ..............................+",
" ..............................+",
" ..................@@..........+",
" ..................@@@.........+",
" ..........@@@@@@@@@@@@........+",
" ..........@@@@@@@@@@@@........+",
" ..........@@......@@@.........+",
" ..........@@......@@..........+",
" .....#####@@########..........+",
" .....#$$$$@@$$$$$$$$#.........+",
" ....##$$$$@@$$$$$$$$$#........+",
" ....#$$$$$@@$$$$$$$$$$#.......+",
" ....#$$$$$@@$$$$$$$$$$#.......+",
" ....#$$$$$$$$$$$$$$$$$#.......+",
" ....#$$$$$$$###############...+",
" ....#$$$$$$#%%%%%%%%%%%%%%%#..+",
" ....#$$$$$#%%%%%%%%%%%%%%%%#..+",
" ....#$$$$$#%%%%%%%%%%%%%%%#...+",
" ....#$$$$#%%%%%%%%%%%%%%%%#...+",
" ....#$$$$#%%%%%%%%%%%%%%%#....+",
" ....#$$$#%%%%%%%%%%%%%%%%#....+",
" ....#$$$#%%%%%%%%%%%%%%%#.....+",
" ....#$$#%%%%%%%%%%%%%%%%#.....+",
" ....#$$#%%%%%%%%%%%%%%%#......+",
" ....#$#%%%%%%%%%%%%%%%%#......+",
" ....#$#%%%%%%%%%%%%%%%#.......+",
" ....###################.......+",
" ..............................+",
" ..............................+",
" ..............................+",
" +++++++++++++++++++++++++++++++"};
