/* XPM */
static char * rewind32x32_xpm[] = {
"32 32 4 1",
" 	c #FFFFFF",
".	c #8B8B8B",
"+	c #000000",
"@	c #CA0000",
"                                ",
" ..............................+",
" ..............................+",
" ..............................+",
" ..............................+",
" ..............................+",
" ............@@@@@@@...........+",
" ..........@@@@@@@@@@@.........+",
" .........@@@@.....@@@@........+",
" ........@@@.........@@@.......+",
" .......@@@@.........@@@@......+",
" .......@@@.....++....@@@......+",
" ......@@@@....++++....@@@.....+",
" ......@@@.....++++..@@@@@@@...+",
" ......@@@......++....@@@@@....+",
" ......@@@......++.....@@@.....+",
" ......@@@......++......@......+",
" ......@@@......++.............+",
" ......@@@......++.............+",
" ......@@@......++.............+",
" .......@@@....................+",
" .......@@@.....++....@@@......+",
" ........@@@....++...@@@.......+",
" .........@@@@.....@@@@........+",
" ..........@@@@@@@@@@@.........+",
" ............@@@@@@@...........+",
" ..............................+",
" ..............................+",
" ..............................+",
" ..............................+",
" ..............................+",
" +++++++++++++++++++++++++++++++"};
