/* XPM */
static char * stepinto32x32_xpm[] = {
"32 32 6 1",
" 	c None",
".	c #FFFFFF",
"+	c #8B8B8B",
"@	c #000000",
"#	c #FFC200",
"$	c #4743FF",
"................................",
".++++++++++++++++++++++++++++++@",
".++++++++++++++++++++++++++++++@",
".++++++++++++++++++++++++++++++@",
".++++++++++++++++++++++++++++++@",
".++++++++++++++++++++++++++++++@",
".++++++++++++++++++++++++++++++@",
".++++++++++++++++++++++++++++++@",
".++++++++++++++##++++++++++++++@",
".++++++++++++++##++++++++++++++@",
".++++++++++++++##++++++++++++++@",
".++++++++++++++##++++++++++++++@",
".++++++++++++++##++++++++++++++@",
".++++++++++++++##++++++++++++++@",
".++++++++++++++##++++++++++++++@",
".++++++++++++++##++++++++++++++@",
".++++++++++++++##++++++++++++++@",
".++++++++++++++##++++++++++++++@",
".++++++++++++++##++++++++++++++@",
".++++++++++++++##++++++++++++++@",
".++++++++++#+++##+++#++++++++++@",
".++++++++++##++##++##++++++++++@",
".+++++++++++##+##+##+++++++++++@",
".++++++++++++######++++++++++++@",
".+++++++++++++####+++++++++++++@",
".++++++++++++++##++++++++++++++@",
".+$$$$$$$$$$$$+##+$$$$$$$$$$$++@",
".+$$$$$$$$$$$$++++$$$$$$$$$$$++@",
".++++++++++++++++++++++++++++++@",
".++++++++++++++++++++++++++++++@",
".++++++++++++++++++++++++++++++@",
".@@@@@@@@@@@@@@@@@@@@@@@@@@@@@@@"};
