/* XPM */
static char * trace32x32_xpm[] = {
"32 32 5 1",
" 	c #FFFFFF",
".	c #8B8B8B",
"+	c #000000",
"@	c #FFC200",
"#	c #4743FF",
"                                ",
" ..............................+",
" ..............................+",
" ..............................+",
" ..............................+",
" ..............................+",
" ..............................+",
" ..............................+",
" ..............................+",
" ....................@@...##...+",
" ....................@@@..##...+",
" .....@@@@@@@@@@@@@@@@@@@.##...+",
" .....@@@@@@@@@@@@@@@@@@@.##...+",
" ....................@@@..##...+",
" ........@@..........@@...##...+",
" .......@@@@..............##...+",
" ......@@@@@@..................+",
" ......@@@@@@.............@@...+",
" ........@@...............@@...+",
" ........@@...............@@...+",
" ........@@...............@@...+",
" ........@@@@@@@@@@@@@@@@@@@...+",
" ........@@@@@@@@@@@@@@@@@@@...+",
" ..............................+",
" ..............................+",
" ..............................+",
" ..............................+",
" ..............................+",
" ..............................+",
" ..............................+",
" ..............................+",
" +++++++++++++++++++++++++++++++"};
